<svg width="72" height="72" viewBox="0 0 72 72" fill="none" xmlns="http://www.w3.org/2000/svg">
<g filter="url(#filter0_d)">
<path d="M16.0494 29.8343C14.4771 29.8343 13.0031 30.1263 11.6274 30.7103C10.2516 31.2942 9.04297 32.0826 8.00134 33.0754C6.95972 34.0682 6.1441 35.2556 5.5545 36.6377C4.9649 38.0198 4.66028 39.4895 4.64062 41.0468C4.64062 42.6041 4.93542 44.0543 5.52502 45.3975C6.11462 46.7406 6.92041 47.9281 7.94238 48.9598C8.96436 49.9915 10.173 50.7993 11.5684 51.3833C12.9638 51.9673 14.428 52.2593 15.9609 52.2593H49.9219C52.0051 52.2593 53.9606 51.87 55.7884 51.0913C57.6161 50.3127 59.2179 49.2518 60.5936 47.9086C61.9694 46.5654 63.0503 44.9789 63.8364 43.1491C64.6226 41.3193 65.0156 39.3727 65.0156 37.3093C65.0156 35.2459 64.6226 33.309 63.8364 31.4986C63.0503 29.6883 61.9792 28.1018 60.6231 26.7392C59.267 25.3765 57.6653 24.3059 55.8179 23.5272C53.9705 22.7486 52.0051 22.3593 49.9219 22.3593C49.0178 22.3593 48.1039 22.4469 47.1802 22.6221C46.3941 21.4152 45.4901 20.3348 44.4681 19.381C43.4461 18.4271 42.316 17.6095 41.0779 16.9282C39.8397 16.2469 38.5426 15.7408 37.1865 15.4099C35.8304 15.0789 34.4154 14.9037 32.9414 14.8843C30.7599 14.8843 28.7061 15.2639 26.7801 16.023C24.8541 16.7822 23.1344 17.8237 21.6211 19.1474C20.1078 20.4711 18.8795 22.0576 17.9361 23.9068C16.9927 25.7561 16.3638 27.7319 16.0494 29.8343Z" fill="url(#paint0_linear)"/>
</g>
<path d="M64.8082 36.0145C64.8082 42.762 57.6202 46.8907 50.5034 46.8907C43.3865 46.8907 37.6172 41.4208 37.6172 34.6734C37.6172 27.9259 43.3865 22.4561 50.5034 22.4561C57.6202 22.4561 64.8082 29.2671 64.8082 36.0145Z" fill="url(#paint1_linear)"/>
<path d="M46.2593 26.732C43.3175 26.732 40.6955 27.7646 38.6491 29.4047C38.6491 29.4047 38.5851 29.4047 38.5851 29.4654C39.8002 27.0357 41.9106 25.0312 44.4687 23.8771C42.2943 21.5081 39.1607 20.0503 35.5794 20.0503C29.1203 20.0503 23.9402 25.0312 23.9402 31.0447C23.9402 32.0166 24.0681 32.9885 24.3239 33.8997C23.4286 33.5959 22.4693 33.4137 21.4461 33.4137C16.9695 33.4137 13.3242 36.8761 13.3242 41.0673C13.3242 45.2586 16.9695 48.7209 21.4461 48.7209C21.51 48.7209 21.574 48.7209 21.574 48.7209H46.0035C46.0674 48.7209 46.1314 48.7209 46.1953 48.7209C52.6545 48.7209 57.8345 43.74 57.8345 37.7265C57.8345 31.7129 52.6545 26.732 46.2593 26.732Z" fill="url(#paint2_linear)"/>
<g filter="url(#filter1_d)">
<path d="M34.8697 39.001L28.5289 50.9298C28.1961 51.7046 28 52.5504 28 53.4387C28 54.327 28.1961 55.1728 28.5289 55.9476C28.8795 56.748 29.3817 57.4746 30.0116 58.0791C30.6445 58.6836 31.4052 59.1604 32.2431 59.4953C33.0542 59.816 33.9397 60.0005 34.8697 60.0005C35.8027 60.0005 36.6882 59.816 37.4964 59.4953C38.3373 59.1604 39.095 58.6836 39.7279 58.0791C40.3608 57.4746 40.8629 56.748 41.2106 55.9476C41.5463 55.1728 41.7395 54.327 41.7395 53.4387C41.7395 52.5504 41.5463 51.7046 41.2106 50.9298L34.8697 39.001Z" fill="#A4D4FF"/>
<path d="M36.0377 41.1929L30.3971 51.8504C30.0981 52.5465 29.9219 53.3065 29.9219 54.1047C29.9219 54.9028 30.0981 55.6628 30.3971 56.359C30.7121 57.0781 31.1633 57.7309 31.7293 58.2741C32.298 58.8173 32.9814 59.2457 33.7343 59.5466C34.4632 59.8348 35.2588 60.0005 36.0944 60.0005C36.9327 60.0005 37.7283 59.8348 38.4545 59.5466C39.21 59.2457 39.8908 58.8173 40.4595 58.2741C41.0282 57.7309 41.4794 57.0781 41.7917 56.359C42.0934 55.6628 42.267 54.9028 42.267 54.1047C42.267 53.3065 42.0934 52.5465 41.7917 51.8504L36.0377 41.1929Z" fill="url(#paint3_linear)"/>
</g>
<defs>
<filter id="filter0_d" x="2.64062" y="14.8843" width="64.375" height="41.375" filterUnits="userSpaceOnUse" color-interpolation-filters="sRGB">
<feFlood flood-opacity="0" result="BackgroundImageFix"/>
<feColorMatrix in="SourceAlpha" type="matrix" values="0 0 0 0 0 0 0 0 0 0 0 0 0 0 0 0 0 0 127 0"/>
<feOffset dy="2"/>
<feGaussianBlur stdDeviation="1"/>
<feColorMatrix type="matrix" values="0 0 0 0 0 0 0 0 0 0 0 0 0 0 0 0 0 0 0.25 0"/>
<feBlend mode="normal" in2="BackgroundImageFix" result="effect1_dropShadow"/>
<feBlend mode="normal" in="SourceGraphic" in2="effect1_dropShadow" result="shape"/>
</filter>
<filter id="filter1_d" x="26" y="39.001" width="18.267" height="24.9996" filterUnits="userSpaceOnUse" color-interpolation-filters="sRGB">
<feFlood flood-opacity="0" result="BackgroundImageFix"/>
<feColorMatrix in="SourceAlpha" type="matrix" values="0 0 0 0 0 0 0 0 0 0 0 0 0 0 0 0 0 0 127 0"/>
<feOffset dy="2"/>
<feGaussianBlur stdDeviation="1"/>
<feColorMatrix type="matrix" values="0 0 0 0 0 0 0 0 0 0 0 0 0 0 0 0 0 0 0.25 0"/>
<feBlend mode="normal" in2="BackgroundImageFix" result="effect1_dropShadow"/>
<feBlend mode="normal" in="SourceGraphic" in2="effect1_dropShadow" result="shape"/>
</filter>
<linearGradient id="paint0_linear" x1="7.64063" y1="17.8843" x2="63.3378" y2="52.7384" gradientUnits="userSpaceOnUse">
<stop stop-color="white"/>
<stop offset="0.387304" stop-color="#C6EBFF"/>
<stop offset="0.96875" stop-color="#96C6E0"/>
</linearGradient>
<linearGradient id="paint1_linear" x1="46.0852" y1="22.8051" x2="49.0784" y2="36.8361" gradientUnits="userSpaceOnUse">
<stop offset="0.265243" stop-color="#F4F8FA"/>
<stop offset="0.899425" stop-color="#F4F8FA" stop-opacity="0"/>
</linearGradient>
<linearGradient id="paint2_linear" x1="17.4533" y1="26.7176" x2="41.7133" y2="52.3322" gradientUnits="userSpaceOnUse">
<stop offset="0.0589154" stop-color="#98DAFE"/>
<stop offset="0.751885" stop-color="#E7F6FF"/>
<stop offset="1" stop-color="#BCE6FF"/>
</linearGradient>
<linearGradient id="paint3_linear" x1="28.5607" y1="54.4096" x2="42.8037" y2="47.5624" gradientUnits="userSpaceOnUse">
<stop offset="0.395833" stop-color="#6BB5F8"/>
<stop offset="1" stop-color="#2696EF"/>
</linearGradient>
</defs>
</svg>
